<?xml version="1.0" encoding="UTF-8" standalone="no"?>
<!-- Created with Inkscape (http://www.inkscape.org/) -->

<svg
   xmlns:dc="http://purl.org/dc/elements/1.1/"
   xmlns:cc="http://creativecommons.org/ns#"
   xmlns:rdf="http://www.w3.org/1999/02/22-rdf-syntax-ns#"
   xmlns:svg="http://www.w3.org/2000/svg"
   xmlns="http://www.w3.org/2000/svg"
   xmlns:sodipodi="http://sodipodi.sourceforge.net/DTD/sodipodi-0.dtd"
   xmlns:inkscape="http://www.inkscape.org/namespaces/inkscape"
   width="200mm"
   height="200mm"
   viewBox="0 0 708.66142 708.66143"
   id="svg4540"
   version="1.1"
   inkscape:version="0.92.1 r15371"
   sodipodi:docname="azcis-Clever.svg">
  <defs
     id="defs4542" />
  <sodipodi:namedview
     id="base"
     pagecolor="#ffffff"
     bordercolor="#666666"
     borderopacity="1.0"
     inkscape:pageopacity="0.0"
     inkscape:pageshadow="2"
     inkscape:zoom="0.49497475"
     inkscape:cx="-309.8987"
     inkscape:cy="-20.893677"
     inkscape:document-units="px"
     inkscape:current-layer="text5820"
     showgrid="false"
     inkscape:window-width="1920"
     inkscape:window-height="1137"
     inkscape:window-x="-8"
     inkscape:window-y="-6"
     inkscape:window-maximized="1"
     fit-margin-top="0"
     fit-margin-left="0"
     fit-margin-right="0"
     fit-margin-bottom="0" />
  <metadata
     id="metadata4545">
    <rdf:RDF>
      <cc:Work
         rdf:about="">
        <dc:format>image/svg+xml</dc:format>
        <dc:type
           rdf:resource="http://purl.org/dc/dcmitype/StillImage" />
        <dc:title></dc:title>
      </cc:Work>
    </rdf:RDF>
  </metadata>
  <g
     inkscape:label="Layer 1"
     inkscape:groupmode="layer"
     id="layer1"
     transform="translate(-19.510235,55.486592)">
    <path
       inkscape:connector-curvature="0"
       id="path5761"
       d="m 145.10561,372.15292 v -89.884 l -6.52249,-1.63421 c -18.60694,-4.66192 -33.28234,-33.54182 -33.88472,-66.68224 -0.29266,-16.09991 2.09994,-21.28723 9.81852,-21.28723 5.44198,0 7.79229,4.89335 9.23899,19.23574 1.66202,16.47658 5.69275,28.63954 11.25128,33.9515 9.87829,9.44014 10.09842,8.72892 10.09842,-32.63067 0,-23.69249 0.66468,-39.45214 1.8335,-43.47225 2.00404,-6.89303 8.43986,-13.16084 13.51355,-13.16084 4.50357,0 11.88234,6.374 13.76683,11.89226 0.97191,2.84596 1.58018,29.63122 1.58018,69.5812 0,36.70259 0.61103,65.5458 1.40479,66.3146 2.42139,2.34519 11.20883,-11.27591 14.26923,-22.1183 1.61108,-5.70768 3.34183,-18.09058 3.84615,-27.51764 1.01335,-18.94191 3.83804,-25.99902 10.40658,-25.99902 5.76161,0 9.97562,7.98927 9.97562,18.91255 0,25.78728 -7.7696,58.17333 -17.51418,73.00445 -5.60978,8.53811 -10.02683,12.17537 -18.16769,14.96052 l -4.2205,1.4438 v 62.48691 l -1.35242,12.43305 -16.02327,0.2461 h -15.34703 z"
       style="fill:#447821;fill-opacity:1;stroke-width:1.61051011"
       sodipodi:nodetypes="ccsssssssssscssssssccccccc" />
    <g
       id="g5116"
       transform="matrix(17.928779,0,0,17.928778,-23041.017,-8064.8033)">
      <g
         transform="scale(0.98756273,1.0125939)"
         style="font-size:1.49024093px;fill:#000000;fill-opacity:1"
         id="text3147-5-4-7-40-1-4-48">
        <path
           d="m 1329.647,457.53397 -1.186,0.65308 q -0.3344,-0.35005 -0.6636,-0.48589 -0.3239,-0.13584 -0.7628,-0.13584 -0.7993,0 -1.2957,0.48067 -0.4911,0.47544 -0.4911,1.22257 0,0.72622 0.4754,1.18599 0.4755,0.45977 1.2487,0.45977 0.9561,0 1.4891,-0.65308 l 1.1233,0.76802 q -0.9144,1.186 -2.581,1.186 -1.4995,0 -2.3511,-0.88819 -0.8464,-0.88819 -0.8464,-2.07941 0,-0.8255 0.4127,-1.52038 0.4128,-0.69488 1.1495,-1.09195 0.7419,-0.39707 1.6562,-0.39707 0.8464,0 1.5204,0.3396 0.6739,0.33438 1.1024,0.95611 z"
           style="font-variant:normal;font-weight:bold;font-stretch:normal;font-size:10.70009136px;font-family:'Century Gothic';-inkscape-font-specification:CenturyGothic-Bold;writing-mode:lr-tb;fill:#000000;fill-opacity:1;fill-rule:nonzero;stroke:none"
           id="path5897"
           inkscape:connector-curvature="0" />
      </g>
      <path
         inkscape:export-ydpi="312.92001"
         inkscape:export-xdpi="312.92001"
         inkscape:export-filename="C:\Users\Curtis\Google Drive\Images\logos\CIS Logos\cis_black.png"
         inkscape:connector-curvature="0"
         d="m 1319.8784,461.70236 -0.1598,-0.23051 -0.1603,-0.2305 -0.1595,-0.23062 -0.1602,-0.23038 0.7001,-0.0445 0.7006,-0.0441 0.7004,-0.0445 0.7002,-0.0441 -0.3199,0.54526 -0.3198,0.54525 -0.32,0.54538 -0.3198,0.54538 -0.1513,-0.1553 -0.1516,-0.15518 -0.1511,-0.15517 -0.1512,-0.15518 -0.1,0.0932 -0.099,0.0929 -0.099,0.0933 -0.1,0.0931 -0.1122,-0.0975 -0.1125,-0.0976 -0.1815,-0.0888 -0.1818,-0.0887 0.1773,-0.11531 0.1774,-0.11519 0.1771,-0.11531 0.1773,-0.11532 z"
         style="fill:#fce92c;fill-opacity:1;fill-rule:nonzero;stroke:#fce92c;stroke-width:0.1006006;stroke-opacity:1"
         id="path3153-7-6-0-4-5-1-9" />
      <g
         inkscape:export-ydpi="312.92001"
         inkscape:export-xdpi="312.92001"
         inkscape:export-filename="C:\Users\Curtis\Google Drive\Images\logos\CIS Logos\cis_black.png"
         style="stroke:#fce92c;stroke-opacity:1"
         transform="matrix(0.12575075,0,0,-0.12575075,1319.8784,461.70236)"
         id="g3155-6-0-9-8-8-9-2">
        <path
           id="path3157-1-66-4-8-4-5-0"
           style="fill:none;stroke:#fce92c;stroke-width:1;stroke-linecap:butt;stroke-linejoin:miter;stroke-miterlimit:4;stroke-dasharray:none;stroke-opacity:1"
           d="M 0,0 -1.271,1.833 -2.545,3.666 -3.814,5.5 -5.088,7.332 0.48,7.686 6.051,8.037 11.621,8.391 17.189,8.742 14.645,4.406 12.102,0.07 9.557,-4.267 7.014,-8.604 5.811,-7.369 4.605,-6.135 3.404,-4.901 2.201,-3.667 1.41,-4.408 0.619,-5.147 l -0.791,-0.742 -0.791,-0.74 -0.892,0.775 -0.895,0.776 -1.443,0.706 -1.446,0.705 1.41,0.917 1.411,0.916 1.408,0.917 z"
           inkscape:connector-curvature="0" />
      </g>
      <g
         transform="scale(0.98756273,1.0125939)"
         style="font-size:1.49024093px;fill:#000000;fill-opacity:1"
         id="text3159-4-1-8-2-0-5-7">
        <path
           d="m 1336.8038,457.22355 -0.883,0.88297 q -0.5381,-0.53291 -0.977,-0.53291 -0.2403,0 -0.3762,0.10449 -0.1358,0.0993 -0.1358,0.25078 0,0.11495 0.084,0.21421 0.089,0.0941 0.4284,0.26124 l 0.5225,0.26123 q 0.8255,0.40752 1.1337,0.83072 0.3083,0.4232 0.3083,0.99268 0,0.75758 -0.5591,1.26437 -0.5538,0.50679 -1.489,0.50679 -1.2435,0 -1.9854,-0.97178 l 0.8778,-0.95612 q 0.2508,0.29258 0.5851,0.47545 0.3396,0.17764 0.6009,0.17764 0.2821,0 0.4545,-0.13585 0.1724,-0.13584 0.1724,-0.31347 0,-0.32916 -0.6217,-0.64264 l -0.4807,-0.24033 q -1.3793,-0.69488 -1.3793,-1.73981 0,-0.67398 0.5173,-1.14943 0.5224,-0.48066 1.3322,-0.48066 0.5539,0 1.0398,0.24556 0.4911,0.24033 0.8307,0.69487 z"
           style="font-variant:normal;font-weight:bold;font-stretch:normal;font-size:10.70009136px;font-family:'Century Gothic';-inkscape-font-specification:CenturyGothic-Bold;writing-mode:lr-tb;fill:#000000;fill-opacity:1;fill-rule:nonzero;stroke:none"
           id="path5900"
           inkscape:connector-curvature="0" />
      </g>
      <g
         inkscape:export-ydpi="312.92001"
         inkscape:export-xdpi="312.92001"
         inkscape:export-filename="C:\Users\Curtis\Google Drive\Images\logos\CIS Logos\cis_black.png"
         transform="matrix(0.12575075,0,0,-0.12575075,1313.7711,460.58325)"
         id="g3171-3-4-2-55-4-4-0">
        <path
           id="path3173-2-96-4-1-7-7-7"
           style="fill:#ec4d4b;fill-opacity:1;fill-rule:nonzero;stroke:none"
           d="m 0,0 c 0,4.759 3.762,8.616 8.402,8.616 4.643,0 8.405,-3.857 8.405,-8.616 0,-4.759 -3.762,-8.616 -8.405,-8.616 C 3.762,-8.616 0,-4.759 0,0"
           inkscape:connector-curvature="0" />
      </g>
      <path
         inkscape:export-ydpi="312.92001"
         inkscape:export-xdpi="312.92001"
         inkscape:export-filename="C:\Users\Curtis\Google Drive\Images\logos\CIS Logos\cis_black.png"
         id="path3175-2-37-5-71-2-3-0"
         style="fill:#000000;fill-opacity:1;fill-rule:nonzero;stroke:none"
         d="m 1314.0801,461.98946 h 1.4152 v 6.07112 h -1.4152 z"
         inkscape:connector-curvature="0" />
      <g
         inkscape:export-ydpi="312.92001"
         inkscape:export-xdpi="312.92001"
         inkscape:export-filename="C:\Users\Curtis\Google Drive\Images\logos\CIS Logos\cis_black.png"
         style="fill:#fce92c;fill-opacity:1"
         transform="matrix(0.12575075,0,0,-0.12575075,1307.5843,464.88176)"
         id="g3177-1-8-5-15-1-4-5">
        <path
           sodipodi:nodetypes="ccccccccccccccccccccccccccccccccccccccccccccaccccccccccccccccc"
           id="path3179-6-8-1-27-4-0-6"
           style="fill:#fce92c;fill-opacity:1;fill-rule:evenodd;stroke:none"
           d="m 3.96875,-21.375 c -0.8499956,-0.03385 -1.6897828,0.124538 -2.53125,0.21875 -0.84296007,0.120099 -1.68214196,0.27239 -2.53125,0.34375 -0.831841,0.12793 -1.6098531,0.46134 -2.40625,0.71875 -0.7288215,0.307889 -1.5016887,0.538391 -2.154282,0.99877 -0.6170229,0.482023 -1.2295347,0.985585 -1.689468,1.62623 -0.4537021,0.656356 -0.8979374,1.32703 -1.2178338,2.060553 -0.2354439,0.75184 -0.5550502,1.491228 -0.6259162,2.283197 -0.2169836,0.777995 0.013864,1.578097 0.061239,2.363018 0.1852895,0.7782915 0.491932,1.5187679 0.7825112,2.261982 0.378048,0.8055591 0.7278815,1.6254263 1.15625,2.40625 0.4791667,0.7395833 0.9583333,1.4791667 1.4375,2.21875 0.5203836,0.716482 1.0519512,1.4245772 1.59375,2.125 0.8020833,0.91666667 1.6041667,1.83333333 2.40625,2.75 -0.1982449,-0.75313223 -0.2260058,-1.53747931 -0.21875,-2.3125 -0.3232861,-0.7357643 -0.7215663,-1.4532171 -0.875,-2.25 -0.1989134,-0.8747865 -0.4390525,-1.7407438 -0.59375,-2.625 -0.071764,-0.7988555 -0.2178674,-1.6033319 -0.125,-2.40625 -0.018047,-0.7750132 0.2294337,-1.543765 0.65625,-2.1875 0.3400704,-0.486442 0.8638791,-0.818069 1.34375,-1.15625 0.74040339,-0.397044 1.58138164,-0.535659 2.37285898,-0.797392 0.80230622,-0.239739 1.64006752,-0.300135 2.47089102,-0.358858 0.8676505,-0.132477 1.7385295,-0.236918 2.61383,-0.302962 0.8850021,-0.03185 1.7729416,-0.06848 2.6579903,-0.01296 0.8149486,0.07811 1.6333025,0.134321 2.4437565,0.252972 1.041674,0.127882 2.087958,0.218271 3.131415,0.331651 0.895356,0.137286 1.785496,0.311943 2.678819,0.463798 1.20368,0.213553 2.411742,0.411344 3.599189,0.705004 1.496216,0.301216 2.995883,0.584751 4.5,0.84375 0.84666,0.277456 1.725436,0.433009 2.59375,0.625 0.900289,0.2450867 1.796045,0.5057692 2.6875,0.78125 1.6153,0.4370578 3.24239,0.8343432 4.836978,1.3440701 0.818019,0.2495104 1.654566,0.4470349 2.444272,0.7809299 2.151664,0.746752 4.334227,1.4014854 6.47986,2.166089 1.550866,0.5512402 3.115326,1.0625925 4.67639,1.583911 3.739583,1.5833333 7.479167,3.16666667 11.21875,4.75 1.988837,1.0111078 3.985526,2.0066442 5.979048,3.0084025 1.58673,0.8167419 3.177821,1.6249217 4.770952,2.4290975 1.194439,0.6832642 2.386171,1.3713614 3.597489,2.024501 1.236497,0.6743573 2.455657,1.37983 3.683761,2.069249 0.791667,0.395833 1.583333,0.791667 2.375,1.1875 0.793669,0.316563 1.574808,0.66976 2.404062,0.886843 0.715476,0.183375 1.463107,0.262322 2.199478,0.177803 0.816304,-0.11785 1.479823,-0.25456 2.227266,-0.617549 0.472725,-0.236912 0.905094,-0.543119 1.369643,-0.79319 0.03685,-0.01984 0.11234,-0.05604 0.11234,-0.05604 0.143546,-0.04575 -0.0256,-0.02169 0.04662,-0.02837 C 88.520349,11.4725 87.905531,11.109219 87.9375,11.125 86.887721,10.513698 85.826847,9.9196457 84.8125,9.25 82.135417,7.5833333 79.458333,5.9166667 76.78125,4.25 70.947917,0.9375 65.114583,-2.375 59.28125,-5.6875 58.493265,-6.0930306 57.71547,-6.5171983 56.94906,-6.9621887 54.404314,-8.2054274 51.857891,-9.4454853 49.3125,-10.6875 47.881069,-11.336647 46.443629,-11.9722 45,-12.59375 c -1.317927,-0.475034 -2.63036,-0.964796 -3.9375,-1.46875 -2.010417,-0.645833 -4.020833,-1.291667 -6.03125,-1.9375 -4.3125,-1.125 -8.625,-2.25 -12.9375,-3.375 C 21.319542,-19.558523 20.523777,-19.626265 19.75,-19.8125 18.5,-20 17.25,-20.1875 16,-20.375 c -2.71875,-0.270833 -5.4375,-0.541667 -8.15625,-0.8125 -0.8773265,-0.02991 -1.7523106,-0.09263 -2.625,-0.1875 -0.4162859,-0.01704 -0.8352434,-0.06364 -1.25,0 z"
           inkscape:connector-curvature="0" />
      </g>
    </g>
    <g
       transform="matrix(7.501959,0,0.11784156,7.501959,2031.3181,-3779.2606)"
       style="font-style:normal;font-variant:normal;font-weight:300;font-stretch:normal;font-size:40px;line-height:125%;font-family:'Footlight MT Light';-inkscape-font-specification:'Footlight MT Light, Light';text-align:start;letter-spacing:0px;word-spacing:0px;writing-mode:lr-tb;text-anchor:start;fill:#000000;fill-opacity:1;stroke:#000000;stroke-width:1px;stroke-linecap:butt;stroke-linejoin:miter;stroke-opacity:1"
       id="flowRoot5130">
      <path
         d="m -247.83203,532.69812 h 1.15234 l 6.91407,19.96094 q 0.76171,2.22656 1.66015,3.65234 0.91797,1.40625 2.22656,1.46484 v 0.9375 h -7.01171 v -0.9375 h 0.44921 q 0.33204,0 0.33204,-0.64453 0,-0.19531 -0.0781,-0.42969 l -2.34375,-6.79687 h -8.53516 q -1.34765,3.78906 -1.34765,5.64453 0,0.97656 0.625,1.60156 0.64453,0.625 1.67969,0.625 h 1.03515 v 0.9375 h -8.75 v -0.9375 q 2.1875,-0.11718 3.98438,-4.66797 l 8.00781,-20.41015 z m -0.68359,5.625 -4.10157,10.39062 h 7.65625 z"
         style="font-style:normal;font-variant:normal;font-weight:300;font-stretch:normal;font-size:40px;line-height:125%;font-family:'Footlight MT Light';-inkscape-font-specification:'Footlight MT Light, Light';text-align:start;writing-mode:lr-tb;text-anchor:start;stroke:#000000;stroke-opacity:1"
         id="path5903"
         inkscape:connector-curvature="0" />
    </g>
    <g
       transform="matrix(6.1127069,0,0,6.1127069,2065.5088,-3439.4642)"
       style="font-style:normal;font-variant:normal;font-weight:normal;font-stretch:normal;font-size:40px;line-height:125%;font-family:'Bell MT';-inkscape-font-specification:'Bell MT, Normal';text-align:start;letter-spacing:0px;word-spacing:0px;writing-mode:lr-tb;text-anchor:start;fill:#000000;fill-opacity:1;stroke:none;stroke-width:1px;stroke-linecap:butt;stroke-linejoin:miter;stroke-opacity:1"
       id="flowRoot5138">
      <path
         d="m -288.24414,599.48526 q 0.87891,-0.13672 6.05469,-0.13672 l 2.51953,-0.0195 2.5,0.0586 q 0.76172,0 0.76172,0.3711 0,0.2539 -1.9336,3.28125 l -4.9414,7.7539 q -1.9336,2.91016 -2.51953,4.23829 0.74218,0.0195 1.48437,0.0586 l 1.28906,-0.0195 1.44532,0.0195 q 1.23046,0 1.875,-0.23438 0.64453,-0.2539 1.15234,-0.76171 0.52734,-0.52735 2.46094,-3.02735 0.2539,-0.33203 0.46875,-0.33203 0.33203,0 0.33203,0.35156 0,0.11719 -1.11328,4.70703 l -5.21485,0.0391 -4.55078,-0.0977 -2.48047,0.0977 q -0.80078,0 -0.80078,-0.41016 0,-0.64453 4.23828,-6.83594 1.89453,-2.77343 2.34375,-3.63281 0.46875,-0.85937 2.77344,-4.78516 -1.52344,-0.0586 -2.08984,-0.0586 -2.42188,0 -3.71094,0.64453 -1.26953,0.64453 -2.44141,2.51953 -0.5664,0.89844 -0.80078,0.89844 -0.3125,0 -0.3125,-0.35156 0,-0.11719 0.15625,-0.56641 0.3125,-0.91797 1.05469,-3.76953 z"
         style="stroke:#000000;stroke-opacity:1"
         id="path5147"
         inkscape:connector-curvature="0" />
    </g>
    <g
       style="font-style:normal;font-variant:normal;font-weight:normal;font-stretch:normal;font-size:40.97044754px;line-height:125%;font-family:Arial;-inkscape-font-specification:'Arial, Normal';text-align:start;letter-spacing:0px;word-spacing:0px;writing-mode:lr-tb;text-anchor:start;fill:#000000;fill-opacity:1;stroke:none;stroke-width:1px;stroke-linecap:butt;stroke-linejoin:miter;stroke-opacity:1"
       id="text5820" />
  </g>
</svg>
