<?xml version="1.0" encoding="UTF-8" standalone="no"?>
<svg
   xmlns:dc="http://purl.org/dc/elements/1.1/"
   xmlns:cc="http://creativecommons.org/ns#"
   xmlns:rdf="http://www.w3.org/1999/02/22-rdf-syntax-ns#"
   xmlns:svg="http://www.w3.org/2000/svg"
   xmlns="http://www.w3.org/2000/svg"
   xmlns:sodipodi="http://sodipodi.sourceforge.net/DTD/sodipodi-0.dtd"
   xmlns:inkscape="http://www.inkscape.org/namespaces/inkscape"
   viewBox="0 0 187.50001 187.5"
   height="200"
   width="200"
   xml:space="preserve"
   id="svg2"
   version="1.1"
   inkscape:version="0.92.1 r15371"
   sodipodi:docname="CIS Logo-Clever.svg"><sodipodi:namedview
     pagecolor="#ffffff"
     bordercolor="#666666"
     borderopacity="1"
     objecttolerance="10"
     gridtolerance="10"
     guidetolerance="10"
     inkscape:pageopacity="0"
     inkscape:pageshadow="2"
     inkscape:window-width="1920"
     inkscape:window-height="1137"
     id="namedview15"
     showgrid="false"
     inkscape:zoom="1.7442351"
     inkscape:cx="-63.223532"
     inkscape:cy="46.755109"
     inkscape:window-x="1912"
     inkscape:window-y="-8"
     inkscape:window-maximized="1"
     inkscape:current-layer="svg2"
     fit-margin-top="0"
     fit-margin-left="0"
     fit-margin-right="0"
     fit-margin-bottom="0" /><metadata
     id="metadata8"><rdf:RDF><cc:Work
         rdf:about=""><dc:format>image/svg+xml</dc:format><dc:type
           rdf:resource="http://purl.org/dc/dcmitype/StillImage" /><dc:title></dc:title></cc:Work></rdf:RDF></metadata><defs
     id="defs6" /><g
     transform="matrix(0.22510892,0,0,-0.22510892,-60.11648,115.79221)"
     id="g10"><g
       transform="scale(0.1)"
       id="g12"><path
         id="path16"
         style="fill:#273770;fill-opacity:1;fill-rule:nonzero;stroke:none"
         d="M 5168.92,8.39063 C 4298.09,9.48047 3590.55,718.93 3591.69,1589.76 c 1.14,870.86 710.51,1578.43 1581.34,1577.29 564.19,-0.71 1088.85,-306.44 1369.32,-797.77 l -646.3,-368.97 c -148.53,260.26 -425.94,422.19 -724,422.56 -460.48,0.59 -835.59,-373.59 -836.18,-834.08 -0.61,-460.48 373.52,-835.61 834.01,-836.181 295.43,-0.41 572.1,158.891 722.04,415.651 L 6534.59,793.02 C 6251.58,308.328 5728.25,7.64844 5168.92,8.39063"
         inkscape:connector-curvature="0" /><path
         id="path18"
         style="fill:#273770;fill-opacity:1;fill-rule:nonzero;stroke:none"
         d="M 7538.97,121.801 H 6862.65 V 3063.54 h 676.32 V 121.801"
         inkscape:connector-curvature="0" /><path
         id="path20"
         style="fill:#273770;fill-opacity:1;fill-rule:nonzero;stroke:none"
         d="m 9914.3,2664.29 -466.43,-466.41 c -189.49,187.66 -361.51,281.49 -516.07,281.49 -84.64,0 -150.91,-17.92 -198.74,-53.82 -47.83,-35.87 -71.74,-80.47 -71.74,-133.84 0,-40.47 15.17,-77.74 45.55,-111.79 30.36,-34.04 105.3,-80.5 224.93,-139.38 l 275.95,-137.97 c 290.75,-143.52 490.35,-289.81 598.9,-438.83 108.56,-149.05 162.84,-323.85 162.84,-524.381 0,-266.828 -97.95,-489.429 -293.88,-667.898 C 9479.61,92.9805 9216.94,3.71094 8887.62,3.71094 8449.74,3.71094 8100.15,174.828 7838.74,517.059 l 463.8,505.061 c 88.29,-103.03 191.78,-186.3 310.49,-249.768 118.66,-63.473 224.02,-95.204 315.97,-95.204 99.37,0 179.45,23.922 240.12,71.743 60.72,47.839 91.09,103.089 91.09,165.64 0,115.919 -109.47,229.039 -328.41,339.459 l -253.93,126.94 c -485.77,244.7 -728.69,551.06 -728.69,919.05 0,237.35 91.61,440.23 274.71,608.57 183.04,168.35 417.16,252.53 702.37,252.53 195.03,0 378.58,-42.77 550.61,-128.33 172.03,-85.55 317.86,-208.39 437.43,-368.46"
         inkscape:connector-curvature="0" /><path
         id="path22"
         style="fill:#f9d030;fill-opacity:1;fill-rule:nonzero;stroke:none"
         d="m 3390.47,836.512 c 0.65,-2.571 1.45,-5.711 2.02,-8 -1,2.226 -3.22,4.226 -2.02,7.937 z M 10663.7,3511.64 9514.31,3253.94 9754.38,3030.66 C 9738.22,3020.05 7925.56,1729.06 5806.9,940.039 4725.18,537.199 3719.28,631.781 3579.41,668.82 c -67.8,19.918 -93.17,16.551 -159.44,98.852 -221.19,274.648 349.77,566.568 349.77,566.568 l -1.12,237.74 c 0,0 -295.88,-58.44 -512.91,-216.51 -55.25,-40.24 -111.18,-95.26 -169.17,-170.12 -275.28,-355.178 -69,-857.901 349.1,-978.67 C 4133.94,4.91016 5240.55,98.3984 6157.58,443.262 7867.11,1086.16 9938.84,2753.34 9962.01,2770.83 l 155.09,-270.94 546.6,1011.75"
         inkscape:connector-curvature="0" /><path
         id="path24"
         style="fill:#273770;fill-opacity:1;fill-rule:nonzero;stroke:none"
         d="m 3688.43,1043.24 c -62.82,170.42 -97,354.55 -96.74,546.52 1.14,870.86 710.51,1578.43 1581.34,1577.29 564.19,-0.71 1088.85,-306.44 1369.32,-797.77 l -646.3,-368.97 c -148.53,260.26 -425.94,422.19 -724,422.56 -460.48,0.59 -835.59,-373.59 -836.18,-834.08 -0.15,-105.44 19.37,-206.44 55.08,-299.45 120.19,-313.231 -480.49,-848.77 -702.52,-246.1"
         inkscape:connector-curvature="0" /><path
         id="path26"
         style="fill:#273770;fill-opacity:1;fill-rule:nonzero;stroke:none"
         d="m 8733.06,2425.55 c -47.83,-35.87 -71.74,-80.47 -71.74,-133.84 0,-40.47 15.17,-77.74 45.55,-111.79 30.36,-34.04 105.3,-80.5 224.93,-139.38 l 275.95,-137.97 c 290.75,-143.52 490.35,-289.81 598.9,-438.83 108.56,-149.05 162.84,-323.85 162.84,-524.381 0,-266.828 -97.95,-489.429 -293.88,-667.898 C 9479.61,92.9805 9216.94,3.71094 8887.62,3.71094 8449.74,3.71094 8100.15,174.828 7838.74,517.059 l 463.8,505.061 c 88.29,-103.03 191.78,-186.3 310.49,-249.768 118.66,-63.473 224.02,-95.204 315.97,-95.204 99.37,0 179.45,23.922 240.12,71.743 60.72,47.839 91.09,103.089 91.09,165.64 0,115.919 -109.47,229.039 -328.41,339.459 l -253.93,126.94 c -485.77,244.7 -728.69,551.06 -728.69,919.05 0,237.35 91.61,440.23 274.71,608.57 183.04,168.35 417.16,252.53 702.37,252.53 195.03,0 -145.37,-699.63 -193.2,-735.53"
         inkscape:connector-curvature="0" /><path
         id="path28"
         style="fill:#ce1d2c;fill-opacity:1;fill-rule:nonzero;stroke:none"
         d="m 7677.1,3627.14 c -10.22,-257.64 -227.31,-458.18 -484.88,-447.93 -257.5,10.18 -458.03,227.22 -447.82,484.85 10.19,257.56 227.28,458.06 484.8,447.85 257.59,-10.16 458.12,-227.23 447.9,-484.77"
         inkscape:connector-curvature="0" /></g></g><g
     aria-label="CAREER INFORMATION SYSTEM"
     style="font-style:normal;font-variant:normal;font-weight:normal;font-stretch:normal;font-size:10.82999992px;line-height:0%;font-family:mELIOR;-inkscape-font-specification:'mELIOR, Normal';font-variant-ligatures:normal;font-variant-caps:normal;font-variant-numeric:normal;font-feature-settings:normal;text-align:start;letter-spacing:0px;word-spacing:0px;writing-mode:lr-tb;text-anchor:start;fill:#000000;fill-opacity:1;stroke:none;stroke-width:0.90249997px;stroke-linecap:butt;stroke-linejoin:miter;stroke-opacity:1"
     id="text4171"><path
       d="m 14.4735,133.38911 q -0.290845,0.12691 -0.528808,0.23796 -0.232676,0.11105 -0.613418,0.23268 -0.322574,0.10047 -0.703316,0.16922 -0.375454,0.074 -0.830229,0.074 -0.85667,0 -1.559986,-0.23797 -0.6980269,-0.24325 -1.2162594,-0.75619 -0.5076562,-0.50237 -0.7932128,-1.27443 -0.2855567,-0.77735 -0.2855567,-1.80324 0,-0.97301 0.2749805,-1.73978 0.2749804,-0.76677 0.7932129,-1.29558 0.5023681,-0.51294 1.2109715,-0.78264 0.713892,-0.26969 1.581138,-0.26969 0.63457,0 1.263852,0.15336 0.634571,0.15335 1.406631,0.53938 v 1.2427 h -0.07932 q -0.650435,-0.54467 -1.290293,-0.79321 -0.639858,-0.24854 -1.369614,-0.24854 -0.597554,0 -1.07877,0.19566 -0.475928,0.19037 -0.8513816,0.59755 -0.364878,0.39661 -0.5711133,1.00474 -0.2009473,0.60284 -0.2009473,1.39605 0,0.83023 0.2220996,1.42779 0.2273877,0.59755 0.5816895,0.973 0.3701661,0.39132 0.8619581,0.58169 0.49708,0.18509 1.047041,0.18509 0.756196,0 1.417207,-0.25912 0.661011,-0.25912 1.237412,-0.77735 h 0.07403 z"
       style="font-style:normal;font-variant:normal;font-weight:normal;font-stretch:normal;font-size:10.82999992px;line-height:1.25;font-family:mELIOR;-inkscape-font-specification:'mELIOR, Normal';font-variant-ligatures:normal;font-variant-caps:normal;font-variant-numeric:normal;font-feature-settings:normal;text-align:start;writing-mode:lr-tb;text-anchor:start;stroke-width:0.90249997px"
       id="path4492" /><path
       d="m 22.172953,133.96022 h -1.115786 l -0.772061,-2.19456 h -3.405527 l -0.77206,2.19456 h -1.062906 l 2.866143,-7.87396 h 1.396055 z m -2.21042,-3.09353 -1.38019,-3.86559 -1.385479,3.86559 z"
       style="font-style:normal;font-variant:normal;font-weight:normal;font-stretch:normal;font-size:10.82999992px;line-height:1.25;font-family:mELIOR;-inkscape-font-specification:'mELIOR, Normal';font-variant-ligatures:normal;font-variant-caps:normal;font-variant-numeric:normal;font-feature-settings:normal;text-align:start;writing-mode:lr-tb;text-anchor:start;stroke-width:0.90249997px"
       id="path4494" /><path
       d="m 29.882982,133.96022 h -1.359038 l -2.633467,-3.13055 h -1.475376 v 3.13055 H 23.36806 v -7.87396 h 2.205132 q 0.713892,0 1.189819,0.0952 0.475928,0.0899 0.85667,0.32786 0.428335,0.26969 0.666299,0.68216 0.243252,0.40718 0.243252,1.03647 0,0.85138 -0.428335,1.42778 -0.428335,0.57111 -1.179243,0.86196 z m -2.448384,-5.65825 q 0,-0.33844 -0.121626,-0.59756 -0.116338,-0.2644 -0.391318,-0.44419 -0.227388,-0.15336 -0.539385,-0.21153 -0.311997,-0.0634 -0.735044,-0.0634 h -1.232124 v 2.9719 h 1.057617 q 0.49708,0 0.867246,-0.0846 0.370166,-0.0899 0.629283,-0.32786 0.237963,-0.2221 0.349013,-0.50766 0.116338,-0.29084 0.116338,-0.73504 z"
       style="font-style:normal;font-variant:normal;font-weight:normal;font-stretch:normal;font-size:10.82999992px;line-height:1.25;font-family:mELIOR;-inkscape-font-specification:'mELIOR, Normal';font-variant-ligatures:normal;font-variant-caps:normal;font-variant-numeric:normal;font-feature-settings:normal;text-align:start;writing-mode:lr-tb;text-anchor:start;stroke-width:0.90249997px"
       id="path4496" /><path
       d="m 36.085908,133.96022 h -5.187613 v -7.87396 h 5.187613 v 0.9307 h -4.140572 v 2.15754 h 4.140572 v 0.93071 h -4.140572 v 2.92431 h 4.140572 z"
       style="font-style:normal;font-variant:normal;font-weight:normal;font-stretch:normal;font-size:10.82999992px;line-height:1.25;font-family:mELIOR;-inkscape-font-specification:'mELIOR, Normal';font-variant-ligatures:normal;font-variant-caps:normal;font-variant-numeric:normal;font-feature-settings:normal;text-align:start;writing-mode:lr-tb;text-anchor:start;stroke-width:0.90249997px"
       id="path4498" /><path
       d="m 42.939267,133.96022 h -5.187612 v -7.87396 h 5.187612 v 0.9307 h -4.140571 v 2.15754 h 4.140571 v 0.93071 h -4.140571 v 2.92431 h 4.140571 z"
       style="font-style:normal;font-variant:normal;font-weight:normal;font-stretch:normal;font-size:10.82999992px;line-height:1.25;font-family:mELIOR;-inkscape-font-specification:'mELIOR, Normal';font-variant-ligatures:normal;font-variant-caps:normal;font-variant-numeric:normal;font-feature-settings:normal;text-align:start;writing-mode:lr-tb;text-anchor:start;stroke-width:0.90249997px"
       id="path4500" /><path
       d="m 51.119934,133.96022 h -1.359038 l -2.633467,-3.13055 h -1.475376 v 3.13055 h -1.047041 v -7.87396 h 2.205132 q 0.713891,0 1.189819,0.0952 0.475928,0.0899 0.85667,0.32786 0.428335,0.26969 0.666299,0.68216 0.243252,0.40718 0.243252,1.03647 0,0.85138 -0.428335,1.42778 -0.428335,0.57111 -1.179243,0.86196 z m -2.448384,-5.65825 q 0,-0.33844 -0.121626,-0.59756 -0.116338,-0.2644 -0.391318,-0.44419 -0.227388,-0.15336 -0.539385,-0.21153 -0.311997,-0.0634 -0.735044,-0.0634 h -1.232124 v 2.9719 h 1.057617 q 0.49708,0 0.867246,-0.0846 0.370166,-0.0899 0.629282,-0.32786 0.237964,-0.2221 0.349014,-0.50766 0.116338,-0.29084 0.116338,-0.73504 z"
       style="font-style:normal;font-variant:normal;font-weight:normal;font-stretch:normal;font-size:10.82999992px;line-height:1.25;font-family:mELIOR;-inkscape-font-specification:'mELIOR, Normal';font-variant-ligatures:normal;font-variant-caps:normal;font-variant-numeric:normal;font-feature-settings:normal;text-align:start;writing-mode:lr-tb;text-anchor:start;stroke-width:0.90249997px"
       id="path4502" /><path
       d="M 58.718915,133.96022 H 55.60952 v -0.80379 h 1.031177 v -6.26638 H 55.60952 v -0.80379 h 3.109395 v 0.80379 h -1.031177 v 6.26638 h 1.031177 z"
       style="font-style:normal;font-variant:normal;font-weight:normal;font-stretch:normal;font-size:10.82999992px;line-height:1.25;font-family:mELIOR;-inkscape-font-specification:'mELIOR, Normal';font-variant-ligatures:normal;font-variant-caps:normal;font-variant-numeric:normal;font-feature-settings:normal;text-align:start;writing-mode:lr-tb;text-anchor:start;stroke-width:0.90249997px"
       id="path4504" /><path
       d="m 66.51884,133.96022 h -1.295581 l -3.733388,-7.04373 v 7.04373 h -0.978296 v -7.87396 h 1.623442 l 3.405527,6.43031 v -6.43031 h 0.978296 z"
       style="font-style:normal;font-variant:normal;font-weight:normal;font-stretch:normal;font-size:10.82999992px;line-height:1.25;font-family:mELIOR;-inkscape-font-specification:'mELIOR, Normal';font-variant-ligatures:normal;font-variant-caps:normal;font-variant-numeric:normal;font-feature-settings:normal;text-align:start;writing-mode:lr-tb;text-anchor:start;stroke-width:0.90249997px"
       id="path4506" /><path
       d="m 73.641893,127.01696 h -3.981928 v 2.221 h 3.421391 v 0.9307 h -3.421391 v 3.79156 h -1.047041 v -7.87396 h 5.028969 z"
       style="font-style:normal;font-variant:normal;font-weight:normal;font-stretch:normal;font-size:10.82999992px;line-height:1.25;font-family:mELIOR;-inkscape-font-specification:'mELIOR, Normal';font-variant-ligatures:normal;font-variant-caps:normal;font-variant-numeric:normal;font-feature-settings:normal;text-align:start;writing-mode:lr-tb;text-anchor:start;stroke-width:0.90249997px"
       id="path4508" /><path
       d="m 80.701491,126.99052 q 0.481216,0.52881 0.735044,1.29558 0.259116,0.76678 0.259116,1.73978 0,0.97301 -0.264404,1.74507 -0.259116,0.76678 -0.729756,1.27972 -0.486504,0.5341 -1.152803,0.80379 -0.661011,0.26969 -1.512392,0.26969 -0.83023,0 -1.512393,-0.27498 -0.676875,-0.27498 -1.152803,-0.7985 -0.475927,-0.52352 -0.735044,-1.28501 -0.253828,-0.76148 -0.253828,-1.73978 0,-0.96243 0.253828,-1.72391 0.253829,-0.76677 0.740332,-1.31145 0.465352,-0.51823 1.152803,-0.79321 0.692739,-0.27498 1.507105,-0.27498 0.846093,0 1.51768,0.28027 0.676875,0.27498 1.147515,0.78792 z m -0.09519,3.03536 q 0,-1.53354 -0.687451,-2.36377 -0.687451,-0.83552 -1.87727,-0.83552 -1.200396,0 -1.887847,0.83552 -0.682163,0.83023 -0.682163,2.36377 0,1.54941 0.698027,2.37435 0.698028,0.81966 1.871983,0.81966 1.173955,0 1.866694,-0.81966 0.698027,-0.82494 0.698027,-2.37435 z"
       style="font-style:normal;font-variant:normal;font-weight:normal;font-stretch:normal;font-size:10.82999992px;line-height:1.25;font-family:mELIOR;-inkscape-font-specification:'mELIOR, Normal';font-variant-ligatures:normal;font-variant-caps:normal;font-variant-numeric:normal;font-feature-settings:normal;text-align:start;writing-mode:lr-tb;text-anchor:start;stroke-width:0.90249997px"
       id="path4510" /><path
       d="m 89.871029,133.96022 h -1.359038 l -2.633467,-3.13055 h -1.475376 v 3.13055 h -1.047041 v -7.87396 h 2.205132 q 0.713891,0 1.189819,0.0952 0.475928,0.0899 0.85667,0.32786 0.428335,0.26969 0.666299,0.68216 0.243252,0.40718 0.243252,1.03647 0,0.85138 -0.428335,1.42778 -0.428335,0.57111 -1.179244,0.86196 z m -2.448384,-5.65825 q 0,-0.33844 -0.121626,-0.59756 -0.116338,-0.2644 -0.391319,-0.44419 -0.227387,-0.15336 -0.539384,-0.21153 -0.311997,-0.0634 -0.735044,-0.0634 h -1.232124 v 2.9719 h 1.057617 q 0.49708,0 0.867246,-0.0846 0.370166,-0.0899 0.629282,-0.32786 0.237964,-0.2221 0.349014,-0.50766 0.116338,-0.29084 0.116338,-0.73504 z"
       style="font-style:normal;font-variant:normal;font-weight:normal;font-stretch:normal;font-size:10.82999992px;line-height:1.25;font-family:mELIOR;-inkscape-font-specification:'mELIOR, Normal';font-variant-ligatures:normal;font-variant-caps:normal;font-variant-numeric:normal;font-feature-settings:normal;text-align:start;writing-mode:lr-tb;text-anchor:start;stroke-width:0.90249997px"
       id="path4512" /><path
       d="m 97.898344,133.96022 h -1.047041 v -6.78461 l -2.189268,4.6165 h -0.623994 l -2.173403,-4.6165 v 6.78461 h -0.978296 v -7.87396 h 1.427783 l 2.09937,4.38382 2.030625,-4.38382 h 1.454224 z"
       style="font-style:normal;font-variant:normal;font-weight:normal;font-stretch:normal;font-size:10.82999992px;line-height:1.25;font-family:mELIOR;-inkscape-font-specification:'mELIOR, Normal';font-variant-ligatures:normal;font-variant-caps:normal;font-variant-numeric:normal;font-feature-settings:normal;text-align:start;writing-mode:lr-tb;text-anchor:start;stroke-width:0.90249997px"
       id="path4514" /><path
       d="m 106.23236,133.96022 h -1.11578 l -0.77206,-2.19456 h -3.40553 l -0.77206,2.19456 h -1.062905 l 2.866145,-7.87396 h 1.39605 z m -2.21042,-3.09353 -1.38019,-3.86559 -1.38547,3.86559 z"
       style="font-style:normal;font-variant:normal;font-weight:normal;font-stretch:normal;font-size:10.82999992px;line-height:1.25;font-family:mELIOR;-inkscape-font-specification:'mELIOR, Normal';font-variant-ligatures:normal;font-variant-caps:normal;font-variant-numeric:normal;font-feature-settings:normal;text-align:start;writing-mode:lr-tb;text-anchor:start;stroke-width:0.90249997px"
       id="path4516" /><path
       d="m 112.40885,127.01696 h -2.81326 v 6.94326 h -1.04704 v -6.94326 h -2.81326 v -0.9307 h 6.67356 z"
       style="font-style:normal;font-variant:normal;font-weight:normal;font-stretch:normal;font-size:10.82999992px;line-height:1.25;font-family:mELIOR;-inkscape-font-specification:'mELIOR, Normal';font-variant-ligatures:normal;font-variant-caps:normal;font-variant-numeric:normal;font-feature-settings:normal;text-align:start;writing-mode:lr-tb;text-anchor:start;stroke-width:0.90249997px"
       id="path4518" /><path
       d="m 116.25329,133.96022 h -3.10939 v -0.80379 h 1.03118 v -6.26638 h -1.03118 v -0.80379 h 3.10939 v 0.80379 h -1.03117 v 6.26638 h 1.03117 z"
       style="font-style:normal;font-variant:normal;font-weight:normal;font-stretch:normal;font-size:10.82999992px;line-height:1.25;font-family:mELIOR;-inkscape-font-specification:'mELIOR, Normal';font-variant-ligatures:normal;font-variant-caps:normal;font-variant-numeric:normal;font-feature-settings:normal;text-align:start;writing-mode:lr-tb;text-anchor:start;stroke-width:0.90249997px"
       id="path4520" /><path
       d="m 123.91572,126.99052 q 0.48122,0.52881 0.73505,1.29558 0.25911,0.76678 0.25911,1.73978 0,0.97301 -0.2644,1.74507 -0.25912,0.76678 -0.72976,1.27972 -0.4865,0.5341 -1.1528,0.80379 -0.66101,0.26969 -1.51239,0.26969 -0.83023,0 -1.51239,-0.27498 -0.67688,-0.27498 -1.15281,-0.7985 -0.47592,-0.52352 -0.73504,-1.28501 -0.25383,-0.76148 -0.25383,-1.73978 0,-0.96243 0.25383,-1.72391 0.25383,-0.76677 0.74033,-1.31145 0.46535,-0.51823 1.1528,-0.79321 0.69274,-0.27498 1.50711,-0.27498 0.84609,0 1.51768,0.28027 0.67687,0.27498 1.14751,0.78792 z m -0.0952,3.03536 q 0,-1.53354 -0.68745,-2.36377 -0.68745,-0.83552 -1.87727,-0.83552 -1.2004,0 -1.88785,0.83552 -0.68216,0.83023 -0.68216,2.36377 0,1.54941 0.69802,2.37435 0.69803,0.81966 1.87199,0.81966 1.17395,0 1.86669,-0.81966 0.69803,-0.82494 0.69803,-2.37435 z"
       style="font-style:normal;font-variant:normal;font-weight:normal;font-stretch:normal;font-size:10.82999992px;line-height:1.25;font-family:mELIOR;-inkscape-font-specification:'mELIOR, Normal';font-variant-ligatures:normal;font-variant-caps:normal;font-variant-numeric:normal;font-feature-settings:normal;text-align:start;writing-mode:lr-tb;text-anchor:start;stroke-width:0.90249997px"
       id="path4522" /><path
       d="m 132.57761,133.96022 h -1.29558 l -3.73339,-7.04373 v 7.04373 h -0.97829 v -7.87396 h 1.62344 l 3.40553,6.43031 v -6.43031 h 0.97829 z"
       style="font-style:normal;font-variant:normal;font-weight:normal;font-stretch:normal;font-size:10.82999992px;line-height:1.25;font-family:mELIOR;-inkscape-font-specification:'mELIOR, Normal';font-variant-ligatures:normal;font-variant-caps:normal;font-variant-numeric:normal;font-feature-settings:normal;text-align:start;writing-mode:lr-tb;text-anchor:start;stroke-width:0.90249997px"
       id="path4524" /><path
       d="m 144.20082,131.71278 q 0,0.46007 -0.21681,0.90955 -0.21152,0.44949 -0.59755,0.76149 -0.42305,0.33844 -0.98887,0.52881 -0.56054,0.19037 -1.35375,0.19037 -0.85138,0 -1.53355,-0.15864 -0.67687,-0.15865 -1.38019,-0.47064 v -1.31145 h 0.074 q 0.59755,0.49708 1.38019,0.76677 0.78263,0.2697 1.47008,0.2697 0.97301,0 1.5124,-0.36488 0.54467,-0.36488 0.54467,-0.97301 0,-0.52352 -0.25912,-0.77206 -0.25383,-0.24854 -0.77735,-0.38603 -0.3966,-0.10576 -0.86195,-0.17451 -0.46007,-0.0687 -0.9783,-0.1745 -1.04704,-0.2221 -1.5547,-0.7562 -0.50237,-0.53939 -0.50237,-1.40134 0,-0.98888 0.83552,-1.61816 0.83552,-0.63457 2.12052,-0.63457 0.83023,0 1.52297,0.15864 0.69274,0.15865 1.22684,0.39132 v 1.23742 h -0.074 q -0.44949,-0.38075 -1.18454,-0.62929 -0.72975,-0.25383 -1.49652,-0.25383 -0.84081,0 -1.35375,0.34902 -0.50766,0.34901 -0.50766,0.89897 0,0.4918 0.25383,0.77206 0.25383,0.28027 0.89368,0.42834 0.33844,0.074 0.96244,0.17979 0.62399,0.10577 1.05761,0.21682 0.87783,0.23267 1.32203,0.70331 0.44419,0.47064 0.44419,1.31673 z"
       style="font-style:normal;font-variant:normal;font-weight:normal;font-stretch:normal;font-size:10.82999992px;line-height:1.25;font-family:mELIOR;-inkscape-font-specification:'mELIOR, Normal';font-variant-ligatures:normal;font-variant-caps:normal;font-variant-numeric:normal;font-feature-settings:normal;text-align:start;writing-mode:lr-tb;text-anchor:start;stroke-width:0.90249997px"
       id="path4526" /><path
       d="m 151.45608,126.08626 -2.77096,4.42084 v 3.45312 h -1.04704 v -3.34207 l -2.78153,-4.53189 h 1.15809 l 2.15225,3.52187 2.1734,-3.52187 z"
       style="font-style:normal;font-variant:normal;font-weight:normal;font-stretch:normal;font-size:10.82999992px;line-height:1.25;font-family:mELIOR;-inkscape-font-specification:'mELIOR, Normal';font-variant-ligatures:normal;font-variant-caps:normal;font-variant-numeric:normal;font-feature-settings:normal;text-align:start;writing-mode:lr-tb;text-anchor:start;stroke-width:0.90249997px"
       id="path4528" /><path
       d="m 158.26714,131.71278 q 0,0.46007 -0.21681,0.90955 -0.21153,0.44949 -0.59756,0.76149 -0.42304,0.33844 -0.98887,0.52881 -0.56054,0.19037 -1.35375,0.19037 -0.85138,0 -1.53354,-0.15864 -0.67688,-0.15865 -1.38019,-0.47064 v -1.31145 h 0.074 q 0.59755,0.49708 1.38019,0.76677 0.78264,0.2697 1.47009,0.2697 0.97301,0 1.51239,-0.36488 0.54467,-0.36488 0.54467,-0.97301 0,-0.52352 -0.25911,-0.77206 -0.25383,-0.24854 -0.77735,-0.38603 -0.39661,-0.10576 -0.86196,-0.17451 -0.46006,-0.0687 -0.9783,-0.1745 -1.04704,-0.2221 -1.55469,-0.7562 -0.50237,-0.53939 -0.50237,-1.40134 0,-0.98888 0.83552,-1.61816 0.83551,-0.63457 2.12052,-0.63457 0.83023,0 1.52297,0.15864 0.69274,0.15865 1.22683,0.39132 v 1.23742 h -0.074 q -0.44949,-0.38075 -1.18453,-0.62929 -0.72976,-0.25383 -1.49653,-0.25383 -0.8408,0 -1.35375,0.34902 -0.50766,0.34901 -0.50766,0.89897 0,0.4918 0.25383,0.77206 0.25383,0.28027 0.89369,0.42834 0.33844,0.074 0.96243,0.17979 0.624,0.10577 1.05762,0.21682 0.87782,0.23267 1.32202,0.70331 0.4442,0.47064 0.4442,1.31673 z"
       style="font-style:normal;font-variant:normal;font-weight:normal;font-stretch:normal;font-size:10.82999992px;line-height:1.25;font-family:mELIOR;-inkscape-font-specification:'mELIOR, Normal';font-variant-ligatures:normal;font-variant-caps:normal;font-variant-numeric:normal;font-feature-settings:normal;text-align:start;writing-mode:lr-tb;text-anchor:start;stroke-width:0.90249997px"
       id="path4530" /><path
       d="m 165.5647,127.01696 h -2.81326 v 6.94326 h -1.04704 v -6.94326 h -2.81327 v -0.9307 h 6.67357 z"
       style="font-style:normal;font-variant:normal;font-weight:normal;font-stretch:normal;font-size:10.82999992px;line-height:1.25;font-family:mELIOR;-inkscape-font-specification:'mELIOR, Normal';font-variant-ligatures:normal;font-variant-caps:normal;font-variant-numeric:normal;font-feature-settings:normal;text-align:start;writing-mode:lr-tb;text-anchor:start;stroke-width:0.90249997px"
       id="path4532" /><path
       d="m 171.82049,133.96022 h -5.18761 v -7.87396 h 5.18761 v 0.9307 h -4.14057 v 2.15754 h 4.14057 v 0.93071 h -4.14057 v 2.92431 h 4.14057 z"
       style="font-style:normal;font-variant:normal;font-weight:normal;font-stretch:normal;font-size:10.82999992px;line-height:1.25;font-family:mELIOR;-inkscape-font-specification:'mELIOR, Normal';font-variant-ligatures:normal;font-variant-caps:normal;font-variant-numeric:normal;font-feature-settings:normal;text-align:start;writing-mode:lr-tb;text-anchor:start;stroke-width:0.90249997px"
       id="path4534" /><path
       d="m 180.49824,133.96022 h -1.04704 v -6.78461 l -2.18927,4.6165 h -0.62399 l -2.1734,-4.6165 v 6.78461 h -0.9783 v -7.87396 h 1.42778 l 2.09937,4.38382 2.03063,-4.38382 h 1.45422 z"
       style="font-style:normal;font-variant:normal;font-weight:normal;font-stretch:normal;font-size:10.82999992px;line-height:1.25;font-family:mELIOR;-inkscape-font-specification:'mELIOR, Normal';font-variant-ligatures:normal;font-variant-caps:normal;font-variant-numeric:normal;font-feature-settings:normal;text-align:start;writing-mode:lr-tb;text-anchor:start;stroke-width:0.90249997px"
       id="path4536" /></g></svg>